<svg xmlns="http://www.w3.org/2000/svg" viewBox="0 0 96 128" width="96" height="128">
  <rect width="96" height="128" fill="#00ff00"/>
  <defs>
    <g id="d-down-idle">
      <rect x="11" y="5" width="10" height="8" fill="#2b2238"/>
      <rect x="9" y="10" width="14" height="8" fill="#3a2d4c"/>
      <rect x="10" y="11" width="12" height="7" fill="#efccb6"/>
      <rect x="11" y="18" width="10" height="5" fill="#f4f0f5"/>
      <rect x="8" y="23" width="16" height="8" fill="#6a5aa6"/>
      <rect x="10" y="31" width="12" height="1" fill="#31273d"/>
      <rect x="9" y="32" width="5" height="8" fill="#2f2c38"/>
      <rect x="18" y="32" width="5" height="8" fill="#2f2c38"/>
      <rect x="10" y="40" width="4" height="4" fill="#1e1b24"/>
      <rect x="18" y="40" width="4" height="4" fill="#1e1b24"/>
    </g>
    <g id="d-down-step1"><use href="#d-down-idle"/><rect x="9" y="32" width="5" height="7" fill="#2f2c38"/><rect x="18" y="32" width="5" height="9" fill="#2f2c38"/><rect x="9" y="39" width="4" height="4" fill="#1e1b24"/><rect x="19" y="41" width="4" height="3" fill="#1e1b24"/></g>
    <g id="d-down-step2"><use href="#d-down-idle"/><rect x="9" y="32" width="5" height="9" fill="#2f2c38"/><rect x="18" y="32" width="5" height="7" fill="#2f2c38"/><rect x="10" y="41" width="4" height="3" fill="#1e1b24"/><rect x="18" y="39" width="4" height="4" fill="#1e1b24"/></g>
    <g id="d-left-idle">
      <rect x="11" y="5" width="8" height="8" fill="#2b2238"/>
      <rect x="9" y="9" width="11" height="9" fill="#3a2d4c"/>
      <rect x="10" y="11" width="9" height="7" fill="#efccb6"/>
      <rect x="11" y="18" width="8" height="5" fill="#f4f0f5"/>
      <rect x="10" y="23" width="12" height="8" fill="#6a5aa6"/>
      <rect x="11" y="32" width="5" height="8" fill="#2f2c38"/>
      <rect x="17" y="32" width="4" height="8" fill="#2f2c38"/>
      <rect x="11" y="40" width="4" height="4" fill="#1e1b24"/>
      <rect x="17" y="40" width="4" height="4" fill="#1e1b24"/>
    </g>
    <g id="d-left-step1"><use href="#d-left-idle"/><rect x="11" y="32" width="5" height="7" fill="#2f2c38"/><rect x="17" y="32" width="4" height="9" fill="#2f2c38"/><rect x="11" y="39" width="4" height="3" fill="#1e1b24"/><rect x="17" y="41" width="4" height="3" fill="#1e1b24"/></g>
    <g id="d-left-step2"><use href="#d-left-idle"/><rect x="11" y="32" width="5" height="9" fill="#2f2c38"/><rect x="17" y="32" width="4" height="7" fill="#2f2c38"/><rect x="11" y="41" width="4" height="3" fill="#1e1b24"/><rect x="17" y="39" width="4" height="3" fill="#1e1b24"/></g>
    <g id="d-right-idle"><use href="#d-left-idle" transform="translate(32 0) scale(-1 1)"/></g>
    <g id="d-right-step1"><use href="#d-left-step1" transform="translate(32 0) scale(-1 1)"/></g>
    <g id="d-right-step2"><use href="#d-left-step2" transform="translate(32 0) scale(-1 1)"/></g>
    <g id="d-up-idle">
      <rect x="11" y="5" width="10" height="8" fill="#2b2238"/>
      <rect x="9" y="9" width="14" height="10" fill="#3a2d4c"/>
      <rect x="11" y="18" width="10" height="5" fill="#f4f0f5"/>
      <rect x="8" y="23" width="16" height="8" fill="#6a5aa6"/>
      <rect x="9" y="32" width="5" height="8" fill="#2f2c38"/>
      <rect x="18" y="32" width="5" height="8" fill="#2f2c38"/>
      <rect x="10" y="40" width="4" height="4" fill="#1e1b24"/>
      <rect x="18" y="40" width="4" height="4" fill="#1e1b24"/>
    </g>
    <g id="d-up-step1"><use href="#d-up-idle"/><rect x="9" y="32" width="5" height="7" fill="#2f2c38"/><rect x="18" y="32" width="5" height="9" fill="#2f2c38"/><rect x="9" y="39" width="4" height="4" fill="#1e1b24"/><rect x="19" y="41" width="4" height="3" fill="#1e1b24"/></g>
    <g id="d-up-step2"><use href="#d-up-idle"/><rect x="9" y="32" width="5" height="9" fill="#2f2c38"/><rect x="18" y="32" width="5" height="7" fill="#2f2c38"/><rect x="10" y="41" width="4" height="3" fill="#1e1b24"/><rect x="18" y="39" width="4" height="4" fill="#1e1b24"/></g>
  </defs>
  <use href="#d-down-idle" x="0" y="0"/><use href="#d-down-step1" x="32" y="0"/><use href="#d-down-step2" x="64" y="0"/>
  <use href="#d-left-idle" x="0" y="32"/><use href="#d-left-step1" x="32" y="32"/><use href="#d-left-step2" x="64" y="32"/>
  <use href="#d-right-idle" x="0" y="64"/><use href="#d-right-step1" x="32" y="64"/><use href="#d-right-step2" x="64" y="64"/>
  <use href="#d-up-idle" x="0" y="96"/><use href="#d-up-step1" x="32" y="96"/><use href="#d-up-step2" x="64" y="96"/>
</svg>
