<svg xmlns="http://www.w3.org/2000/svg" viewBox="0 0 96 128" width="96" height="128">
  <rect width="96" height="128" fill="#00ff00"/>
  <defs>
    <g id="h-down-idle">
      <rect x="11" y="5" width="10" height="8" fill="#47261f"/>
      <rect x="9" y="10" width="14" height="8" fill="#6d3a30"/>
      <rect x="10" y="11" width="12" height="7" fill="#f2c9b1"/>
      <rect x="11" y="18" width="10" height="5" fill="#f7efe2"/>
      <rect x="8" y="23" width="16" height="8" fill="#7b2f2d"/>
      <rect x="10" y="31" width="12" height="1" fill="#3a2a34"/>
      <rect x="9" y="32" width="5" height="8" fill="#2c2738"/>
      <rect x="18" y="32" width="5" height="8" fill="#2c2738"/>
      <rect x="10" y="40" width="4" height="4" fill="#251e27"/>
      <rect x="18" y="40" width="4" height="4" fill="#251e27"/>
      <rect x="13" y="24" width="6" height="4" fill="#c99d3d"/>
    </g>
    <g id="h-down-step1">
      <use href="#h-down-idle"/>
      <rect x="9" y="32" width="5" height="7" fill="#2c2738"/>
      <rect x="18" y="32" width="5" height="9" fill="#2c2738"/>
      <rect x="9" y="39" width="4" height="4" fill="#251e27"/>
      <rect x="19" y="41" width="4" height="3" fill="#251e27"/>
    </g>
    <g id="h-down-step2">
      <use href="#h-down-idle"/>
      <rect x="9" y="32" width="5" height="9" fill="#2c2738"/>
      <rect x="18" y="32" width="5" height="7" fill="#2c2738"/>
      <rect x="10" y="41" width="4" height="3" fill="#251e27"/>
      <rect x="18" y="39" width="4" height="4" fill="#251e27"/>
    </g>
    <g id="h-left-idle">
      <rect x="11" y="5" width="8" height="8" fill="#47261f"/>
      <rect x="9" y="9" width="11" height="9" fill="#6d3a30"/>
      <rect x="10" y="11" width="9" height="7" fill="#f2c9b1"/>
      <rect x="11" y="18" width="8" height="5" fill="#f7efe2"/>
      <rect x="10" y="23" width="12" height="8" fill="#7b2f2d"/>
      <rect x="11" y="32" width="5" height="8" fill="#2c2738"/>
      <rect x="17" y="32" width="4" height="8" fill="#2c2738"/>
      <rect x="11" y="40" width="4" height="4" fill="#251e27"/>
      <rect x="17" y="40" width="4" height="4" fill="#251e27"/>
      <rect x="12" y="24" width="5" height="4" fill="#c99d3d"/>
    </g>
    <g id="h-left-step1">
      <use href="#h-left-idle"/>
      <rect x="11" y="32" width="5" height="7" fill="#2c2738"/>
      <rect x="17" y="32" width="4" height="9" fill="#2c2738"/>
      <rect x="11" y="39" width="4" height="3" fill="#251e27"/>
      <rect x="17" y="41" width="4" height="3" fill="#251e27"/>
    </g>
    <g id="h-left-step2">
      <use href="#h-left-idle"/>
      <rect x="11" y="32" width="5" height="9" fill="#2c2738"/>
      <rect x="17" y="32" width="4" height="7" fill="#2c2738"/>
      <rect x="11" y="41" width="4" height="3" fill="#251e27"/>
      <rect x="17" y="39" width="4" height="3" fill="#251e27"/>
    </g>
    <g id="h-right-idle">
      <use href="#h-left-idle" transform="translate(32 0) scale(-1 1)"/>
    </g>
    <g id="h-right-step1">
      <use href="#h-left-step1" transform="translate(32 0) scale(-1 1)"/>
    </g>
    <g id="h-right-step2">
      <use href="#h-left-step2" transform="translate(32 0) scale(-1 1)"/>
    </g>
    <g id="h-up-idle">
      <rect x="11" y="5" width="10" height="8" fill="#5b3028"/>
      <rect x="9" y="9" width="14" height="10" fill="#6d3a30"/>
      <rect x="11" y="18" width="10" height="5" fill="#f7efe2"/>
      <rect x="8" y="23" width="16" height="8" fill="#7b2f2d"/>
      <rect x="9" y="32" width="5" height="8" fill="#2c2738"/>
      <rect x="18" y="32" width="5" height="8" fill="#2c2738"/>
      <rect x="10" y="40" width="4" height="4" fill="#251e27"/>
      <rect x="18" y="40" width="4" height="4" fill="#251e27"/>
      <rect x="13" y="24" width="6" height="4" fill="#c99d3d"/>
    </g>
    <g id="h-up-step1">
      <use href="#h-up-idle"/>
      <rect x="9" y="32" width="5" height="7" fill="#2c2738"/>
      <rect x="18" y="32" width="5" height="9" fill="#2c2738"/>
      <rect x="9" y="39" width="4" height="4" fill="#251e27"/>
      <rect x="19" y="41" width="4" height="3" fill="#251e27"/>
    </g>
    <g id="h-up-step2">
      <use href="#h-up-idle"/>
      <rect x="9" y="32" width="5" height="9" fill="#2c2738"/>
      <rect x="18" y="32" width="5" height="7" fill="#2c2738"/>
      <rect x="10" y="41" width="4" height="3" fill="#251e27"/>
      <rect x="18" y="39" width="4" height="4" fill="#251e27"/>
    </g>
  </defs>
  <use href="#h-down-idle" x="0" y="0"/>
  <use href="#h-down-step1" x="32" y="0"/>
  <use href="#h-down-step2" x="64" y="0"/>
  <use href="#h-left-idle" x="0" y="32"/>
  <use href="#h-left-step1" x="32" y="32"/>
  <use href="#h-left-step2" x="64" y="32"/>
  <use href="#h-right-idle" x="0" y="64"/>
  <use href="#h-right-step1" x="32" y="64"/>
  <use href="#h-right-step2" x="64" y="64"/>
  <use href="#h-up-idle" x="0" y="96"/>
  <use href="#h-up-step1" x="32" y="96"/>
  <use href="#h-up-step2" x="64" y="96"/>
</svg>
